<?xml version="1.0" standalone="no"?>
<!DOCTYPE svg PUBLIC "-//W3C//DTD SVG 20010904//EN"
 "http://www.w3.org/TR/2001/REC-SVG-20010904/DTD/svg10.dtd">
<svg version="1.0" xmlns="http://www.w3.org/2000/svg"
 width="32.000000pt" height="32.000000pt" viewBox="0 0 32.000000 32.000000"
 preserveAspectRatio="xMidYMid meet">

<g transform="translate(0.000000,32.000000) scale(0.100000,-0.100000)"
fill="#000000" stroke="none">
<path d="M122 298 c-7 -7 -12 -21 -11 -32 1 -18 2 -17 8 4 5 19 13 25 36 25
26 0 30 -4 30 -27 -1 -14 3 -24 7 -22 12 8 10 38 -4 52 -7 7 -21 12 -33 12
-12 0 -26 -5 -33 -12z"/>
<path d="M154 243 c0 -10 8 -21 16 -24 9 -3 17 -24 20 -49 3 -24 11 -45 18
-48 19 -6 14 24 -14 84 -25 54 -43 70 -40 37z"/>
<path d="M101 186 c-14 -57 -14 -63 3 -69 11 -5 15 7 18 54 4 70 -5 76 -21 15z"/>
<path d="M220 45 c0 -8 -5 -15 -12 -15 -6 0 -8 -3 -5 -6 8 -8 37 14 37 27 0 5
-4 9 -10 9 -5 0 -10 -7 -10 -15z"/>
<path d="M123 18 c2 -7 10 -13 17 -13 7 0 15 6 18 13 2 7 -5 12 -18 12 -13 0
-20 -5 -17 -12z"/>
</g>
</svg>
